<svg version="1.0" xmlns="http://www.w3.org/2000/svg" width="152" height="114" viewBox="0 0 500 375"><g><path d="M464.1 2.8c-.5.9-1.2 3.5-1.6 5.5-.8 4.3-1 4.4-8.4 5-6.5.6-8.9 2.6-7.4 6 .8 1.8 2.5 2.6 6.8 3.6 4.1.9 5.5 1.7 5.1 2.7-.3.7-.8 3.6-1.2 6.3-.5 4.2-.4 5.1 1.2 5.9 2.5 1.3 5.2.1 8.8-3.7 1.7-1.7 3.5-3.1 4.2-3.1.6 0 2.4 1.6 3.8 3.5 1.8 2.3 3.5 3.5 5.2 3.5 3.8 0 4.5-3.4 2.1-10.3l-1.9-5.9 3.6-3.7c6.3-6.4 4.2-11.2-4-9.2-2.6.7-4.7 1.1-4.8.9-3.7-6.4-5.9-8.8-8.1-8.8-1.3 0-2.9.8-3.4 1.8zm6.9 9.9c0 2 3.1 3.1 6.3 2.2l3-.9-2.8 3c-2.7 2.9-2.9 4.3-.8 9.6.6 1.7.5 1.7-1.7.1-3.4-2.4-5-2.1-8.7 1.5l-3.3 3.2.3-5.4c.2-5.2.1-5.3-3.3-6.6-3.1-1.1-3.2-1.3-1-1.3 5.4-.2 6.9-1.2 7.6-5 .4-2 .9-4 1.1-4.4.6-1 3.2 2.3 3.3 4zM272.7 7.4c-.8.9-1.8 3-2.2 4.8-1.2 6.1-1.6 6.8-5.3 8.7-7.6 3.9-9.3 9.4-3.4 10.7 4.9 1 5.2 1.3 5.2 4.7 0 6.3 5.1 7.8 9.4 2.7 2.5-3 2.6-3.1 5.6-1.5 1.7.9 4.3 1.5 5.8 1.3 3.5-.4 4.1-4.2 1.4-9.5l-2-3.9 2.4-3.9c1.3-2.2 2.4-4.8 2.4-5.7 0-2.6-3.6-4.1-7-3-2.6.9-3 .7-5.1-2.6-2.7-4.2-4.9-5-7.2-2.8zm6.3 11.3c.7.9 1.8 1 3.6.3 1.4-.6 2.4-.7 2.2-.3-.2.5-1 2-1.8 3.6-1.2 2.4-1.1 3.2.4 6.4 1.9 4.1 1.6 4.9-1.2 3.4-3.1-1.7-5.7-1.3-7.8 1l-1.9 2.1-.5-3.3c-.4-2.8-1-3.5-3.2-3.7-3.9-.5-3.5-1.8 1.1-4.1 3.3-1.7 3.9-2.6 4.5-6.3.7-4 .8-4.2 2.1-2.3.8 1.1 1.9 2.5 2.5 3.2zM346.9 41.1c-14.3 1.7-20.4 3.3-20.7 5.4-.2 1.6 1.7 2.9 9.5 6.6C356.5 63 371.9 81 379 103.5c3.1 9.8 3.8 27.3 1.6 38.3-2.3 11.5-5.5 19.5-7.5 18.8-.9-.2-4.7-1.7-8.6-3.1-5.1-2-9.6-2.8-16.6-3.2l-9.5-.6-1.8-5.1c-2.2-6.1-8.6-17.4-13.4-23.6-14.5-18.7-37.4-30-60.7-30.1-24 0-43.4 8.3-59.8 25.6-8.6 9-17 23.7-18.3 31.8-.4 2-1 3.9-1.4 4.2-.4.2-2.9-.4-5.6-1.5-11.7-4.4-27-4.4-38.9.1l-5.8 2.2 2.8 1.4c2.4 1.3 3.4 1.3 8.8-.2 11.5-3.2 30.4-1.2 37.2 3.9 3.9 3 6.5 1.5 6.5-3.5 0-3.7 4.1-14.4 8.2-21.4 5-8.4 15.1-19.2 23.1-24.7 12.2-8.3 27.4-13.2 35.6-11.6 13.2 2.7 26.3 12.5 31.7 23.4 6.9 14.1 1.6 30.9-12.1 38.9-16.5 9.5-40.5-.7-40.5-17.3 0-8.2 11.1-19.3 20.6-20.8 8.6-1.3 15.8 3.8 15.8 11.2 0 2.8-.7 4.3-2.8 6-2.7 2.4-3.2 5.4-1 6.1 1.9.6 7.2-4.6 8.4-8.3 3.6-10.8-7.2-21.6-19.9-20.1-13.4 1.6-26.1 14.4-26.1 26.4 0 8.6 6.1 17.1 16.2 22.5 3.7 2 5.8 2.3 14.8 2.3 8.9 0 11.2-.4 15.1-2.3 6.5-3.2 13.3-10.2 16.6-17 2.3-4.8 2.7-7 2.7-14.2.1-7.5-.3-9.3-3-15-3.8-8.1-10.1-14.9-17.8-19.5-10.8-6.3 5.9-2.9 20.2 4.2 20.3 9.9 36.9 31.9 41.5 54.5 1.1 5.2 1.6 6.3 3.2 6.3 1.7 0 2-.6 1.8-4.8l-.1-4.7h5.7c22.2 0 42.1 15.6 47.1 36.9 1.4 5.8.8 17.8-1 22.6-1.6 4.1.4 5.8 5 4.4 4.8-1.4 15.6-1.4 21 .1 10.2 2.8 19.7 10.1 24 18.7 3.7 7.2 3.5 16.8-.4 24.6-5.3 10.4-14.6 16.7-30.4 20.8-13.1 3.3-54.1 8.4-99.7 12.3-23.1 2-84.5 2.7-111.5 1.4-14.1-.8-20.3-1.2-59.1-4.3-30.8-2.4-42.4-5.1-59.3-13.8-9.4-4.8-10.3-5.6-12.6-10.2-3.8-7.7-3.5-16.1.9-24.3 7.3-13.5 19.3-21.8 33.4-23.1l7.2-.6-.3-3c-.2-1.7-.4-8.6-.5-15.5-.2-11.6 0-13 2.6-19.1 1.5-3.7 5-9.4 7.7-12.7 2.7-3.3 4.6-6.3 4.3-6.6-1.7-1.7-5.4-.3-8.2 3.1-8.7 10.6-12.5 22.8-11.9 38.5l.4 10.8h-2.7c-5.4 0-15.8 4-21.6 8.4-10 7.6-17.7 19.7-18.9 29.8-.9 8.1 2.3 18.5 7.1 22.7 7.6 6.6 27.3 14.6 43 17.4 11.6 2.1 56.6 5.9 87 7.4 20.2 1 69.3 1 89 .1 49.8-2.5 110.8-9.5 129-14.9 17.8-5.3 28.7-15.4 32.5-29.9 1-3.7 2.2-5.3 7.1-9 10.2-7.7 23.8-24.8 30.9-38.9 4-8 9.1-22.3 11.1-31 2.5-11.4 2.6-36.9.3-47.4-4.8-20.9-14.8-38.2-31.8-55.3C451 63.9 436.8 55.2 415.1 48c-6.4-2.1-15.9-4.6-21.1-5.5-11-1.9-36.1-2.7-47.1-1.4zm48.5 6.9c19.2 3.7 34.6 9.8 49.1 19.5 22 14.6 39.1 36.8 46.9 60.7 10.2 31.4 2.4 69.9-20.4 100.8-4.3 5.8-19 21-20.3 21-.3 0-1.3-2.4-2.1-5.4-1.6-5.2-6.6-13-11-17-7.8-7-18.7-10.8-30.8-10.8l-8.7.1.6-8.7c.6-9.4-1.1-18.1-4.8-25.4-2.4-4.6-2.4-4.3.7-4.6 6.8-.5 17.4-8.2 16.1-11.6-1-2.5-3.1-1.9-7 1.8-3.7 3.5-9.9 5.7-14 4.9-1.4-.3-4.4-2.4-6.7-4.8l-4.2-4.3 2.5-6.3c6.9-17.4 7.6-40.5 1.8-57.9-4.9-14.5-10.2-23-21.1-34-8-7.9-18-15.4-23.4-17.3-4.9-1.8 14.6-3.7 32.1-3.1 8.3.2 18.6 1.2 24.7 2.4z"/><path d="M434.7 120.9c-2 5.7-7.5 11.6-13.2 14.2-4.9 2.3-13.5 2.4-19 .3-7.2-2.8-8.5-2.9-8.5-.5 0 1.4 1.3 2.8 4.3 4.3 6.1 3.3 20.3 3.3 26.5 0l4.3-2.2 3 2.1c5.1 3.6 8.4 0 3.5-3.9l-2.4-1.9 2.2-2.8c2-2.4 2.5-2.6 4.5-1.6 3.4 1.9 8.6 1 8.6-1.4 0-1.2-.8-2.1-2-2.3-6.4-.9-6.6-1.1-6.3-5 .2-3.1 0-3.7-1.7-4-1.6-.2-2.4.7-3.8 4.7zM104 50.9c-1.5.4-2.5 1.4-2.5 2.6 0 1.8 1 1.9 16 2.1 8.8.1 18.3.4 21 .8 11.9 1.7 22.5 3.9 22.5 4.6 0 .4-2.8 1.1-6.2 1.4-16.3 1.9-48.3 12.6-48.3 16.2 0 1.6 1.1 2 6 2.7 14.5 1.9 28.3 5 35.1 7.8 4 1.7 7.8 2.8 8.4 2.4 2.2-1.4.7-3.6-4.2-6.1-5.5-2.8-22.2-7.4-26.9-7.4-13.6 0 18.9-9.8 38.3-11.6 8.2-.7 10.2-1.8 9.6-5.6-.4-2.8-6.3-4.7-23.9-7.8-12.7-2.2-40-3.5-44.9-2.1zM197.2 52.3c-.6.7-1.4 3.6-1.8 6.4l-.6 5.2-6.5 2.2c-6.2 2-6.4 2.2-6.1 5.2.3 3.1 1.1 3.6 7.9 5.1 2.6.6 2.6.6 1.6 6.1-.7 4.1-.6 5.9.3 7 2.4 2.9 5.6 1.7 10.3-3.7l4.5-5.2 3.5 2.7c7.8 5.9 11.8 2.2 7.1-6.7l-2.8-5.3 3.3-4.2c2.4-3 3.1-4.8 2.7-6.5-.8-3.2-2.8-3.8-7.7-2.1-2.3.8-4.3 1.5-4.5 1.5-.2 0-1.5-2-3-4.5-2.7-4.7-6-5.9-8.2-3.2zm6.2 9.8c1.7 2.9 2.1 3.1 5.9 2.5l4-.7-1.7 2.3c-2.7 3.8-2.9 4.8-1.5 7.6.7 1.5 1.5 3.1 1.7 3.5.2.5-1 .2-2.6-.7-1.7-.9-3.4-1.6-3.7-1.6-.3 0-2.4 1.9-4.6 4.2l-4 4.3.6-5.3.7-5.2-3.1-.6c-4.5-.9-4.7-2.2-.6-3 3.8-.7 5.5-3.1 5.5-8 0-3.3 1.2-3 3.4.7zM341.2 87.3c-.6.7-1.4 3.9-1.8 7l-.7 5.6-4.8 1.6c-5.4 1.8-9.9 5-9.9 7 0 2.1 3 3.9 8.4 5l5.1 1-.4 6.3c-.6 11 3.2 12.1 10.9 3.2l5.2-6 4.9 2.7c3.9 2.2 5.3 2.6 6.6 1.7 2.8-1.7 2.7-4.9-.2-9.8l-2.6-4.5 3.5-4.7c4.1-5.4 4.4-6.7 1.6-8.7-1.7-1.2-2.9-1.2-7.5-.2l-5.5 1.3-3.2-4.1c-1.8-2.3-3.7-4.5-4.3-4.9-1.6-1.2-4.2-.9-5.3.5zm9.1 12.1c1.3 1.8 1.9 1.9 6.3.9 2.7-.6 5-1 5.1-.9.1.1-1.2 1.9-2.9 4l-3.2 3.9 2.2 3.8c2.9 4.9 2.8 5.3-.8 3.4-4.5-2.3-5.8-1.9-10.5 3.2l-4.3 4.8.2-6 .1-6-4.2-1c-2.3-.6-4.4-1.3-4.8-1.6-.3-.4 1.8-1.5 4.7-2.5 5.1-1.8 5.3-2.1 5.6-5.9.5-6.5 1.1-7.4 3.2-4.5 1 1.4 2.5 3.4 3.3 4.4zM145.1 101.9c-2.3 1.5-.4 4.1 3.1 4.3 1.8 0 3.8.2 4.3.3.6.2 3 .3 5.5.4l4.5.2-4 3.1C151 116 137 130.9 137 133c0 1.1.3 2 .8 2 .4 0 5.9.2 12.2.4 6.3.2 13.9.7 16.7 1.1 4.5.6 5.4.5 5.9-.9.4-1 .2-2.2-.3-2.7-.6-.6-7-1.6-14.3-2.2l-13.3-1.2 7.3-6.8c4-3.7 10.3-8.8 14.1-11.3 9.9-6.5 9.1-7.6-7.6-9.4-10.9-1.2-11.6-1.2-13.4-.1zM113.9 138.5c-11.1 2.1-17.4 4.6-17.4 7 0 2.5 1.4 2.4 12.3-.5 4.6-1.2 8.6-2 8.8-1.7.2.2-3.1 3.1-7.3 6.3-10.5 8-11.8 9.3-10.4 10.7.7.7 6.3 1.7 12.6 2.3 6.2.7 13.9 2 17 2.9 5.8 1.9 8.4 1.2 7.2-1.8-.6-1.5-14.3-5.6-19.3-5.8-1.6-.1-4-.4-5.3-.8-2.1-.6-1.4-1.4 7.8-8.5 6.5-5.1 10.1-8.5 9.9-9.5-.4-2.1-6.2-2.4-15.9-.6zM59.6 167.3c-1.3 1.3-2.7 4.2-3.1 6.6-.7 4.1-1 4.4-7.1 7.1-5.8 2.7-6.4 3.2-6.4 5.9 0 2.5.5 3.2 2.5 3.6 1.4.3 3.6.7 5 1 2.3.5 2.5 1 2.5 5.5 0 4.4.3 5 2.5 5.6 2.4.6 6.6-1.6 9.5-5.1 1.7-2.1 3.2-1.9 9.3 1 9.7 4.8 13 1.1 7.4-8.2l-3.5-5.7 3.4-3.9c5.7-6.3 3.2-9.9-5.6-8.1-5.1 1.1-5.1 1.1-7.7-2.3-4-5.2-5.9-5.8-8.7-3zm13.3 11.1c2.3-.6 4.1-.9 4.1-.6 0 .3-1.2 1.8-2.6 3.4l-2.7 2.7 3.1 4.8c1.7 2.6 3 4.9 2.8 5-.2.2-2.9-.6-6-1.8l-5.7-2.2-3.2 3.1c-4.2 4.1-5.1 4-4.4-.2.6-4-.4-5.2-4.8-5.8l-3-.4 4.5-2.1c4.2-1.9 4.7-2.5 5.9-7.4l1.4-5.3 3.3 3.9c3.2 3.9 3.3 3.9 7.3 2.9zM173.4 210.4c-.3.8 0 2.4.6 3.5 1.4 2.7.6 3.9-3.6 5.7-3.8 1.6-4.2 2.5-1.8 4.5 1.3 1.1 2.3.9 5.9-1 4.1-2.2 4.4-2.2 6.9-.6 2.5 1.7 2.5 1.8.9 4.5-1.7 3-1.2 6 1.1 6 .8 0 2.3-1.4 3.3-3 1.5-2.6 2.2-3 4.3-2.3 1.4.4 5.9.8 10 .8 5.7-.1 8.5-.6 11.6-2.2 5.9-3.1 10.4-7.2 10.4-9.4 0-2.7-2.6-2.3-6.8 1.1-11.9 9.5-28.5 7.2-36.7-5.2-2.6-3.9-5.1-4.9-6.1-2.4zM333 213.7c-8.6 11.6-27 13.4-36.3 3.7-2.5-2.7-5.5-3.1-6.4-.8-.8 2 2.7 5.5 8.9 8.9 5.8 3.2 15.1 4.3 21.2 2.6 3.8-1 4.1-.9 6.7 2.2 2.3 2.7 2.9 3 4.3 1.8 1.5-1.3 1.5-1.6-.3-4.5l-2-3.1 2.6-2.1 2.7-2.1 3.5 2.4c1.9 1.3 4.4 2.3 5.6 2.1 3.2-.5 2.4-3.6-1.5-5.6-3.5-1.7-3.7-2.2-2.4-7.5 1.1-4.5-2.6-3.4-6.6 2zM269.9 233.4c-1.2 1.4-4.2 3.3-6.6 4.2-5.3 2-10.5.9-14.3-3.1-2.6-2.8-5.5-3.3-6.3-1.1-1.2 3 6.2 8.6 13.2 10.1 6.9 1.5 19.6-5 18.9-9.8-.4-3-2.4-3.2-4.9-.3zM18.4 245.5c-1 .7-2.4 3.3-2.9 5.7-1.1 4.3-1.1 4.3-6.3 4.9-7.1.9-8.2 1.5-8.2 4.2 0 3.1 1.5 4.3 6.3 5.2 4.7.9 5 1.5 3.7 6.4-2.1 8 1.8 10.1 8.6 4.5l4.6-3.8 2.7 3.1c3.3 3.8 5.6 4.7 7.6 2.7 1.9-2 1.9-2.8-.4-9l-2-5.1 3.5-3.4c2.5-2.4 3.4-4.1 3.2-5.9-.3-2.4-.6-2.5-5.9-2.3-5.4.2-5.6.1-7.4-3.3-2.4-4.5-4.6-5.7-7.1-3.9zm5.2 10.6c1.4 2.7 1.9 3 4.7 2.3l3.2-.6-2.3 2.5c-2 2.1-2.3 3.2-1.7 5.9.6 2.7.5 3.1-.6 2-2.1-2-5.1-1.4-8.2 1.5l-2.9 2.8.8-3c.3-1.7.7-3.2.6-3.5 0-2.3-.6-3-2.9-3.8-2.4-.9-2.5-1.1-.6-1.1 4-.2 5.3-1.3 5.9-5.2.7-4.3 1.7-4.2 4 .2zM461 276.9c-.5 1.1-1 4-1 6.6v4.6l-7.6 3.4c-6.9 3.2-7.5 3.7-7.2 6.1.4 3.2 1.8 4.1 8.1 4.9l4.8.6-.3 6.5c-.5 11 3.8 12.3 10.8 3.4 2.1-2.7 4.6-4.9 5.4-5 .8 0 3 .9 4.9 2.1 3.7 2.2 7.5 1.9 8.5-.6.3-.9-.5-3.8-1.9-6.5s-2.5-5.5-2.5-6.1c0-.6 1.4-2.7 3.1-4.6 2.1-2.4 2.9-4.3 2.7-6.1-.3-2.4-.7-2.7-4.3-2.7-2.2 0-5.4.3-7.1.7-2.8.6-3.4.3-6.7-4.3-4.1-5.4-7.8-6.5-9.7-3zm9.9 11.8c.8 1.5 1.6 1.6 6 .7 2.8-.6 5.1-.9 5.1-.6 0 .2-1.1 1.7-2.5 3.4-3 3.6-3.1 5.1-.5 9.3l2 3.3-4.6-1.7-4.6-1.6-4.4 5-4.4 5v-12.4l-4.5-.7c-2.5-.3-4.5-1-4.5-1.5 0-.4 2.2-1.6 4.9-2.6 5.1-1.8 6-3.3 6.1-10.2l.1-2.6 2.4 2.7c1.3 1.6 2.8 3.6 3.4 4.5zM99.7 324.7c-.8 1.6-2 4.5-2.6 6.5-1.2 3.5-1.7 3.9-8.2 5.8-6.9 2.1-7 2.2-6.7 5.3.3 3 .7 3.3 5.1 4.1l4.8 1-.6 4.8c-1.2 8.8 3.2 10.4 9.5 3.5l4-4.2 5 2.7c6 3.3 8.5 3.5 10 .8.9-1.7.6-3.2-1.5-7.7l-2.6-5.7 3.6-3.6c3.7-3.8 4.4-7 2-9-1.2-1-2.4-1-6.2.1-2.7.7-4.8.9-5 .3-.2-.5-1.2-2.4-2.3-4.2-2.6-4.2-6.3-4.4-8.3-.5zm6.4 7.4c1.9 3.7 2.3 4.1 5 3.5l2.9-.6-2 2.8-2.1 2.8 2 4.7c1.1 2.6 1.8 4.7 1.6 4.7-.2 0-2.5-1-5-2.2l-4.5-2.2-4 3.9-3.9 3.8 1-3.7c1.2-4.5.6-6.6-1.9-6.6-3.6 0-3.3-1.5.5-2.6 3.4-.9 4-1.6 5.8-6.7 1.1-3.1 2.1-5.7 2.2-5.7.1 0 1.2 1.8 2.4 4.1zM262.2 324.2c-.5.7-1.3 3.4-1.7 6-.8 5.1-.6 5-11.9 6-3.6.4-5.6 3.1-4 5.5.9 1.5 2.8 2.4 11 4.8.8.2.8 1.8 0 5.5-1.9 9.4 2.2 11.6 9.1 4.8l4.4-4.3 3.9 4.3c4.3 4.6 4.3 4.6 7.1 3.2 2.4-1.3 2.4-4.6 0-10.9l-1.8-4.9 3.8-3.8c4.4-4.3 4.9-6.6 1.9-8.7-1.6-1.1-2.9-1.2-6.1-.3-4.5 1.2-4.5 1.1-8.1-5.3-1.8-3.3-5.6-4.2-7.6-1.9zm6.3 9.9c1.8 4 1.9 4 5.9 3.3l4.1-.6-3 3.1c-2.7 2.9-2.8 3.4-1.7 6.3.6 1.7 1 3.3.8 3.5-.2.2-1.7-.4-3.4-1.4l-3.1-1.8-3.6 3.5-3.6 3.5.7-5.2c.6-5 .6-5.2-2-5.9-3.6-.9-3.3-2.2.7-2.6 3-.3 3.3-.6 4.1-5.1.5-2.6 1.2-4.7 1.6-4.7.4 0 1.5 1.8 2.5 4.1zM381.8 337.7c-.9 1-2.3 4.1-3.2 7-1.7 5-1.8 5.2-6.9 6.3-7.1 1.7-8.7 2.7-8.7 5.3 0 3 1.8 4.7 4.9 4.7 4.5 0 5.3 1.2 4.5 6.7-.6 4.5-.4 5.2 1.5 6.2 2.6 1.4 4.4.6 9-4.3l3.4-3.6 5.4 3.1c5.1 2.9 5.5 3 7.8 1.5 3.1-2 3.1-2.2 0-9.3l-2.6-5.7 3.6-3.6c3.7-3.8 4.6-7.7 1.9-8.7-.9-.3-3.6-.1-6 .4l-4.5 1-1.9-3.7c-2.6-5.1-5.6-6.3-8.2-3.3zm5 8.7c1.5 4 3.2 4.9 7 3.5l2.7-1-2.8 2.9c-2.7 2.8-2.8 3.1-1.4 5.8.8 1.6 1.8 3.9 2.2 5.2l.7 2.3-4.1-2c-5.3-2.7-5.9-2.7-9.8 1.1l-3.4 3.3.3-4.5c.3-4.3.2-4.5-3.2-5.6l-3.5-1.2 4.7-1.2c4.6-1.2 4.8-1.4 6.5-6.6.9-3 1.9-5.4 2.3-5.4.3 0 1.2 1.5 1.8 3.4z"/></g></svg>
